HIERARCHY
ROOT Hips
{
    OFFSET   0.000000   0.000000   0.000000
    CHANNELS 6 Xposition Yposition Zposition Zrotation Xrotation Yrotation
    JOINT Chest
    {
        OFFSET   0.000000   8.007240   0.000000
        CHANNELS 3 Zrotation Xrotation Yrotation
        JOINT Chest2
        {
            OFFSET   0.000000  22.077100   0.000000
            CHANNELS 3 Zrotation Xrotation Yrotation
            JOINT Neck
            {
                OFFSET   0.000000  23.254800   0.000000
                CHANNELS 3 Zrotation Xrotation Yrotation
                JOINT Head
                {
                    OFFSET   0.000000  14.370000   1.956600
                    CHANNELS 3 Zrotation Xrotation Yrotation
                    End Site
                    {
                        OFFSET   0.000000  19.566000   0.000000
                    }
                }
            }
            JOINT LeftCollar
            {
                OFFSET   3.911900  19.017000  -0.467064
                CHANNELS 3 Zrotation Xrotation Yrotation
                JOINT LeftShoulder
                {
                    OFFSET  10.383700   0.000000   0.000000
                    CHANNELS 3 Zrotation Xrotation Yrotation
                    JOINT LeftElbow
                    {
                        OFFSET  26.662100   0.001476   0.000517
                        CHANNELS 3 Zrotation Xrotation Yrotation
                        JOINT LeftWrist
                        {
                            OFFSET  28.869000  -0.000025  -0.000106
                            CHANNELS 3 Zrotation Xrotation Yrotation
                            JOINT LeftFinger0
                            {
                                OFFSET   2.044660  -2.323460   3.252850
                                CHANNELS 3 Zrotation Xrotation Yrotation
                                JOINT LeftFinger01
                                {
                                    OFFSET   3.088130   0.000000   0.000000
                                    CHANNELS 3 Zrotation Xrotation Yrotation
                                    JOINT LeftFinger02
                                    {
                                        OFFSET   2.639460   0.000000   0.000000
                                        CHANNELS 3 Zrotation Xrotation Yrotation
                                        End Site
                                        {
                                            OFFSET   2.582190   0.000000   0.000000
                                        }
                                    }
                                }
                            }
                            JOINT LeftFinger1
                            {
                                OFFSET   8.364480   0.000000   3.252850
                                CHANNELS 3 Zrotation Xrotation Yrotation
                                JOINT LeftFinger11
                                {
                                    OFFSET   4.646930   0.000000   0.000000
                                    CHANNELS 3 Zrotation Xrotation Yrotation
                                    JOINT LeftFinger12
                                    {
                                        OFFSET   2.323460   0.000000   0.000000
                                        CHANNELS 3 Zrotation Xrotation Yrotation
                                        End Site
                                        {
                                            OFFSET   2.273050   0.000000   0.000000
                                        }
                                    }
                                }
                            }
                            JOINT LeftFinger2
                            {
                                OFFSET   8.364490   0.000015   1.078090
                                CHANNELS 3 Zrotation Xrotation Yrotation
                                JOINT LeftFinger21
                                {
                                    OFFSET   5.111620   0.000000   0.000000
                                    CHANNELS 3 Zrotation Xrotation Yrotation
                                    JOINT LeftFinger22
                                    {
                                        OFFSET   2.788160   0.000016   0.000000
                                        CHANNELS 3 Zrotation Xrotation Yrotation
                                        End Site
                                        {
                                            OFFSET   2.727660   0.000000   0.000000
                                        }
                                    }
                                }
                            }
                            JOINT LeftFinger3
                            {
                                OFFSET   7.899780   0.000017  -1.078090
                                CHANNELS 3 Zrotation Xrotation Yrotation
                                JOINT LeftFinger31
                                {
                                    OFFSET   4.646930   0.000000   0.000000
                                    CHANNELS 3 Zrotation Xrotation Yrotation
                                    JOINT LeftFinger32
                                    {
                                        OFFSET   2.323470   0.000000   0.000000
                                        CHANNELS 3 Zrotation Xrotation Yrotation
                                        End Site
                                        {
                                            OFFSET   2.273050   0.000000   0.000000
                                        }
                                    }
                                }
                            }
                            JOINT LeftFinger4
                            {
                                OFFSET   7.435090   0.000000  -3.252850
                                CHANNELS 3 Zrotation Xrotation Yrotation
                                JOINT LeftFinger41
                                {
                                    OFFSET   3.717550   0.000000   0.000000
                                    CHANNELS 3 Zrotation Xrotation Yrotation
                                    JOINT LeftFinger42
                                    {
                                        OFFSET   1.858770   0.000000   0.000000
                                        CHANNELS 3 Zrotation Xrotation Yrotation
                                        End Site
                                        {
                                            OFFSET   1.818440   0.000000   0.000000
                                        }
                                    }
                                }
                            }
                        }
                    }
                }
            }
            JOINT RightCollar
            {
                OFFSET  -3.911900  19.017000  -0.467063
                CHANNELS 3 Zrotation Xrotation Yrotation
                JOINT RightShoulder
                {
                    OFFSET -10.383700   0.000019   0.000000
                    CHANNELS 3 Zrotation Xrotation Yrotation
                    JOINT RightElbow
                    {
                        OFFSET -26.662100   0.001175   0.000102
                        CHANNELS 3 Zrotation Xrotation Yrotation
                        JOINT RightWrist
                        {
                            OFFSET -28.869000   0.000016  -0.000079
                            CHANNELS 3 Zrotation Xrotation Yrotation
                            JOINT RightFinger0
                            {
                                OFFSET  -2.044660  -2.323490   3.252850
                                CHANNELS 3 Zrotation Xrotation Yrotation
                                JOINT RightFinger01
                                {
                                    OFFSET  -3.088140   0.000000   0.000000
                                    CHANNELS 3 Zrotation Xrotation Yrotation
                                    JOINT RightFinger02
                                    {
                                        OFFSET  -2.639460   0.000000   0.000000
                                        CHANNELS 3 Zrotation Xrotation Yrotation
                                        End Site
                                        {
                                            OFFSET  -2.582190   0.000000   0.000000
                                        }
                                    }
                                }
                            }
                            JOINT RightFinger1
                            {
                                OFFSET  -8.364480   0.000000   3.252850
                                CHANNELS 3 Zrotation Xrotation Yrotation
                                JOINT RightFinger11
                                {
                                    OFFSET  -4.646930   0.000000   0.000000
                                    CHANNELS 3 Zrotation Xrotation Yrotation
                                    JOINT RightFinger12
                                    {
                                        OFFSET  -2.323470   0.000000   0.000000
                                        CHANNELS 3 Zrotation Xrotation Yrotation
                                        End Site
                                        {
                                            OFFSET  -2.273050   0.000000   0.000000
                                        }
                                    }
                                }
                            }
                            JOINT RightFinger2
                            {
                                OFFSET  -8.364480   0.000000   1.078090
                                CHANNELS 3 Zrotation Xrotation Yrotation
                                JOINT RightFinger21
                                {
                                    OFFSET  -5.111620   0.000000   0.000000
                                    CHANNELS 3 Zrotation Xrotation Yrotation
                                    JOINT RightFinger22
                                    {
                                        OFFSET  -2.788160   0.000000   0.000000
                                        CHANNELS 3 Zrotation Xrotation Yrotation
                                        End Site
                                        {
                                            OFFSET  -2.727660   0.000000   0.000000
                                        }
                                    }
                                }
                            }
                            JOINT RightFinger3
                            {
                                OFFSET  -7.899780   0.000000  -1.078090
                                CHANNELS 3 Zrotation Xrotation Yrotation
                                JOINT RightFinger31
                                {
                                    OFFSET  -4.646930   0.000000   0.000000
                                    CHANNELS 3 Zrotation Xrotation Yrotation
                                    JOINT RightFinger32
                                    {
                                        OFFSET  -2.323470   0.000000   0.000000
                                        CHANNELS 3 Zrotation Xrotation Yrotation
                                        End Site
                                        {
                                            OFFSET  -2.273050   0.000000   0.000000
                                        }
                                    }
                                }
                            }
                            JOINT RightFinger4
                            {
                                OFFSET  -7.435090   0.000000  -3.252850
                                CHANNELS 3 Zrotation Xrotation Yrotation
                                JOINT RightFinger41
                                {
                                    OFFSET  -3.717550   0.000000   0.000000
                                    CHANNELS 3 Zrotation Xrotation Yrotation
                                    JOINT RightFinger42
                                    {
                                        OFFSET  -1.858770   0.000000   0.000000
                                        CHANNELS 3 Zrotation Xrotation Yrotation
                                        End Site
                                        {
                                            OFFSET  -1.818440   0.000000   0.000000
                                        }
                                    }
                                }
                            }
                        }
                    }
                }
            }
        }
    }
    JOINT LeftHip
    {
        OFFSET   9.783040   0.000000   0.000000
        CHANNELS 3 Zrotation Xrotation Yrotation
        JOINT LeftKnee
        {
            OFFSET   0.000032 -41.789100  -0.002222
            CHANNELS 3 Zrotation Xrotation Yrotation
            JOINT LeftAnkle
            {
                OFFSET   0.000087 -41.133200  -0.000135
                CHANNELS 3 Zrotation Xrotation Yrotation
                JOINT LeftToe
                {
                    OFFSET   0.000000  -6.358960  14.674500
                    CHANNELS 3 Zrotation Xrotation Yrotation
                    End Site
                    {
                        OFFSET   0.000000   0.000000   3.913200
                    }
                }
            }
        }
    }
    JOINT RightHip
    {
        OFFSET  -9.783040   0.000000   0.000000
        CHANNELS 3 Zrotation Xrotation Yrotation
        JOINT RightKnee
        {
            OFFSET   0.000047 -41.789100  -0.000896
            CHANNELS 3 Zrotation Xrotation Yrotation
            JOINT RightAnkle
            {
                OFFSET  -0.000117 -41.133300  -0.000248
                CHANNELS 3 Zrotation Xrotation Yrotation
                JOINT RightToe
                {
                    OFFSET   0.000000  -6.358970  14.674500
                    CHANNELS 3 Zrotation Xrotation Yrotation
                    End Site
                    {
                        OFFSET   0.000000   0.000000   3.913200
                    }
                }
            }
        }
    }
}
MOTION
Frames: 4
Frame Time:   0.016667
 -0.984204  89.496200   0.516467  -1.515550  -2.291960  -0.378362   0.902058   1.976620  -0.195769   1.812470   3.949890  -0.423048   1.026460   0.303163  -0.002346   1.686630   0.615059   4.266680  -3.547120   2.518370  -0.350174 -70.099200  15.245200  -2.874640  -2.892450  -7.405410  -9.312950   2.403410 -14.750200   9.131730  34.309300  21.674300 -66.201700 -12.710900   0.005022   0.001143  -1.355470   0.006384  -0.000954 -27.633700   5.791620 -10.909800 -23.053300   0.000532  -0.000083 -16.146600  -0.010854  -0.003030 -26.017700   2.783240  -5.692180 -26.155800  -0.013850  -0.009300 -17.423900   0.001165  -0.004468 -24.408700   0.154122  -0.346256 -24.409100   0.000930   0.000348 -16.256500  -0.012056  -0.002739 -23.260800  -0.202239   0.492325 -34.892400   0.001084   0.000742 -23.238400   0.001027   0.000513   4.670830   0.438771   4.497450  73.239300   2.139840  -4.618870   1.801720  -9.741870   7.510350  -9.969530 -18.791400   2.584340 -41.565600  28.345800  60.976400  23.141400   0.004991  -0.004156   6.570740   0.001829  -0.004640  27.094000   3.997170   7.759070  22.389700   0.001105   0.003547  15.672800   0.001205  -0.002704  26.441900   3.669140   7.332530  26.677100   0.002591   0.003577  17.766900   0.011842  -0.001250  27.271100   1.270040   2.461990  28.261300   0.002465  -0.003606  18.822000  -0.000607  -0.002408  30.746900   1.113140   1.865880  46.147200   0.005659   0.005531  30.734100   0.004062   0.001038   1.915060   5.810750   2.292680   0.548782   0.623137   8.468980  -2.097340  -3.584000   2.378790  -0.000000   0.000000   0.000000   1.151840   1.012530  -2.665980   1.668520   3.688590  -4.376060  -5.254140  -1.970610  -1.736960   0.000000   0.000000  -0.000000
 -0.977863  89.496200   0.525218  -1.515530  -2.311040  -0.372589   0.901868   1.977140  -0.194508   1.812070   3.950950  -0.420523   1.019190   0.330777  -0.002385   1.674530   0.670475   4.225150  -3.550710   2.524860  -0.361892 -70.097400  15.237900  -2.883530  -2.892590  -7.406590  -9.312790   2.416770 -14.750700   9.132200  34.307100  21.677100 -66.204300 -12.727500   0.005016   0.001148  -1.363770   0.006389  -0.000951 -27.632600   5.786090 -10.900200 -23.055000   0.000538  -0.000041 -16.146500  -0.010864  -0.003049 -26.022700   2.783240  -5.681590 -26.160900  -0.013854  -0.009302 -17.423900   0.001164  -0.004471 -24.414300   0.159231  -0.354067 -24.414800   0.000934   0.000355 -16.260300  -0.012074  -0.002730 -23.267200  -0.201582   0.491044 -34.902100   0.001081   0.000743 -23.244800   0.001029   0.000516   4.671150   0.438277   4.487880  73.240500   2.159110  -4.609120   1.802930  -9.750300   7.510540  -9.972180 -18.794200   2.575740 -41.563200  28.347800  60.991200  23.141100   0.004990  -0.004156   6.570570   0.001831  -0.004644  27.103600   4.002300   7.765720  22.398100   0.001107   0.003549  15.678600   0.001206  -0.002702  26.447400   3.673380   7.339140  26.683100   0.002587   0.003577  17.770900   0.011840  -0.001247  27.275400   1.279810   2.480460  28.282000   0.002465  -0.003606  18.835800  -0.000612  -0.002412  30.755000   1.112800   1.865880  46.159500   0.005657   0.005530  30.742300   0.004056   0.001041   1.912290   5.832960   2.295100   0.548365   0.623077   8.467410  -2.097270  -3.583840   2.371780   0.000000   0.000000  -0.000000   1.152990   1.040180  -2.660210   1.669430   3.685280  -4.385790  -5.254740  -1.978260  -1.739640   0.000000   0.000000   0.000000
 -0.966591  89.496100   0.539620  -1.515440  -2.346300  -0.361516   0.901654   1.980020  -0.192322   1.811580   3.956740  -0.416191   0.998471   0.375710  -0.002451   1.640380   0.760943   4.158080  -3.556940   2.535860  -0.386892 -70.093600  15.230500  -2.899740  -2.893950  -7.414940  -9.312770   2.435140 -14.751200   9.132680  34.309000  21.689400 -66.215400 -12.744100   0.005004   0.001170  -1.372070   0.006395  -0.000948 -27.631500   5.780570 -10.890600 -23.058800   0.000551   0.000000 -16.146300  -0.010904  -0.003067 -26.028900   2.783180  -5.670990 -26.167000  -0.013864  -0.009308 -17.423800   0.001161  -0.004479 -24.422900   0.164340  -0.361878 -24.423400   0.000944   0.000375 -16.266000  -0.012121  -0.002709 -23.276300  -0.200924   0.489763 -34.915600   0.001076   0.000747 -23.253800   0.001037   0.000525   4.671860   0.434790   4.472270  73.242700   2.191420  -4.599400   1.804140  -9.758730   7.510720  -9.975760 -18.800800   2.563830 -41.559100  28.350300  61.015100  23.140700   0.004985  -0.004156   6.570400   0.001834  -0.004653  27.120000   4.010800   7.776560  22.412200   0.001109   0.003554  15.688500   0.001206  -0.002693  26.458200   3.680390   7.349550  26.694700   0.002575   0.003577  17.778600   0.011838  -0.001234  27.282300   1.294800   2.508730  28.315900   0.002465  -0.003605  18.858400  -0.000625  -0.002416  30.769800   1.111410   1.865880  46.181800   0.005651   0.005525  30.757200   0.004042   0.001048   1.905810   5.874050   2.301330   0.547327   0.622657   8.457710  -2.096620  -3.582560   2.364770  -0.000000   0.000000   0.000000   1.154700   1.086920  -2.650360   1.670750   3.681940  -4.401920  -5.255670  -1.992180  -1.746240  -0.000000   0.000000   0.000000
 -0.955951  89.496000   0.550895  -1.515340  -2.382000  -0.350367   0.901796   1.986550  -0.190322   1.811800   3.969840  -0.412298   0.967775   0.410082  -0.002506   1.590040   0.830918   4.109770  -3.561820   2.546120  -0.420318 -70.088100  15.247900  -2.917210  -2.899690  -7.439660  -9.313350   2.439390 -14.748200   9.129500  34.314700  21.721700 -66.239300 -12.743400   0.004994   0.001230  -1.371750   0.006396  -0.000952 -27.638000   5.783190 -10.892500 -23.065400   0.000567  -0.000000 -16.147700  -0.010989  -0.003014 -26.030200   2.783030  -5.673520 -26.168200  -0.013883  -0.009317 -17.423800   0.001155  -0.004492 -24.429200   0.163386  -0.359693 -24.429600   0.000959   0.000410 -16.270200  -0.012195  -0.002677 -23.280100  -0.207093   0.492987 -34.921400   0.001069   0.000752 -23.257600   0.001051   0.000539   4.673170   0.421796   4.457670  73.244900   2.214740  -4.605650   1.803580  -9.751530   7.513610  -9.986420 -18.811500   2.559910 -41.558300  28.350800  61.032600  23.141600   0.004975  -0.004149   6.570810   0.001835  -0.004667  27.133400   4.019090   7.786720  22.423900   0.001105   0.003563  15.696700   0.001202  -0.002679  26.470300   3.687260   7.358100  26.707500   0.002551   0.003584  17.787200   0.011838  -0.001206  27.287400   1.305880   2.529440  28.341000   0.002459  -0.003602  18.875200  -0.000641  -0.002412  30.784200   1.108200   1.861750  46.203200   0.005643   0.005514  30.771400   0.004021   0.001061   1.896260   5.916400   2.312270   0.546331   0.617756   8.434370  -2.094770  -3.578130   2.365590   0.000000   0.000000   0.000000   1.152360   1.125820  -2.639770   1.671520   3.688950  -4.416330  -5.254600  -2.005320  -1.756000   0.000000   0.000000   0.000000
